<svg id="Layer_1" data-name="Layer 1" xmlns="http://www.w3.org/2000/svg" xmlns:xlink="http://www.w3.org/1999/xlink" viewBox="0 0 203.67 253.54"><defs><style>.cls-1,.cls-2{fill:none;}.cls-1{stroke:#353535;stroke-miterlimit:10;}.cls-3{fill:#2d2d2d;}.cls-4{fill:url(#linear-gradient);}.cls-5{fill:url(#linear-gradient-2);}.cls-6{fill:url(#linear-gradient-3);}.cls-7{fill:url(#linear-gradient-4);}.cls-8{fill:url(#linear-gradient-5);}.cls-9{fill:url(#linear-gradient-6);}.cls-10{fill:url(#linear-gradient-7);}.cls-11{fill:url(#linear-gradient-8);}.cls-12{fill:url(#linear-gradient-9);}</style><linearGradient id="linear-gradient" x1="318.58" y1="336.84" x2="356.22" y2="299.2" gradientTransform="matrix(0.8, 0.6, -0.6, 0.8, 245.97, -142.54)" gradientUnits="userSpaceOnUse"><stop offset="0" stop-color="#2d2d2d"/><stop offset="0.01" stop-color="#393939"/><stop offset="0.08" stop-color="#696969"/><stop offset="0.15" stop-color="#939393"/><stop offset="0.22" stop-color="#b6b6b6"/><stop offset="0.29" stop-color="#d0d0d0"/><stop offset="0.36" stop-color="#e3e3e3"/><stop offset="0.43" stop-color="#eee"/><stop offset="0.51" stop-color="#f2f2f2"/><stop offset="0.62" stop-color="#efefef"/><stop offset="0.69" stop-color="#e7e7e7"/><stop offset="0.75" stop-color="#d8d8d8"/><stop offset="0.81" stop-color="#c3c3c3"/><stop offset="0.86" stop-color="#a8a8a8"/><stop offset="0.91" stop-color="#868686"/><stop offset="0.95" stop-color="#5e5e5e"/><stop offset="1" stop-color="#323232"/><stop offset="1" stop-color="#2d2d2d"/></linearGradient><linearGradient id="linear-gradient-2" x1="346.66" y1="281.86" x2="398.73" y2="281.86" xlink:href="#linear-gradient"/><linearGradient id="linear-gradient-3" x1="279.76" y1="289.38" x2="287.37" y2="289.38" gradientUnits="userSpaceOnUse"><stop offset="0" stop-color="#2d2d2d"/><stop offset="0.02" stop-color="#575757"/><stop offset="0.05" stop-color="#7b7b7b"/><stop offset="0.08" stop-color="#9b9b9b"/><stop offset="0.11" stop-color="#b7b7b7"/><stop offset="0.14" stop-color="#cdcdcd"/><stop offset="0.19" stop-color="#dedede"/><stop offset="0.24" stop-color="#e9e9e9"/><stop offset="0.31" stop-color="#f0f0f0"/><stop offset="0.51" stop-color="#f2f2f2"/><stop offset="0.7" stop-color="#f0f0f0"/><stop offset="0.77" stop-color="#e9e9e9"/><stop offset="0.82" stop-color="#dedede"/><stop offset="0.86" stop-color="#cdcdcd"/><stop offset="0.89" stop-color="#b7b7b7"/><stop offset="0.93" stop-color="#9b9b9b"/><stop offset="0.95" stop-color="#7b7b7b"/><stop offset="0.98" stop-color="#575757"/><stop offset="1" stop-color="#2d2d2d"/></linearGradient><linearGradient id="linear-gradient-4" x1="341.98" y1="274.05" x2="349.18" y2="274.05" xlink:href="#linear-gradient-3"/><linearGradient id="linear-gradient-5" x1="407.16" y1="286.89" x2="414.65" y2="286.89" xlink:href="#linear-gradient-3"/><linearGradient id="linear-gradient-6" x1="344.81" y1="368.56" x2="366.77" y2="362.27" gradientUnits="userSpaceOnUse"><stop offset="0" stop-color="#2d2d2d"/><stop offset="0.05" stop-color="#454545"/><stop offset="0.21" stop-color="#8f8f8f"/><stop offset="0.35" stop-color="#c4c4c4"/><stop offset="0.45" stop-color="#e5e5e5"/><stop offset="0.51" stop-color="#f2f2f2"/><stop offset="0.7" stop-color="#f0f0f0"/><stop offset="0.77" stop-color="#e9e9e9"/><stop offset="0.82" stop-color="#dedede"/><stop offset="0.86" stop-color="#cdcdcd"/><stop offset="0.89" stop-color="#b7b7b7"/><stop offset="0.93" stop-color="#9b9b9b"/><stop offset="0.95" stop-color="#7b7b7b"/><stop offset="0.98" stop-color="#575757"/><stop offset="1" stop-color="#2d2d2d"/></linearGradient><linearGradient id="linear-gradient-7" x1="390.94" y1="368.56" x2="412.9" y2="362.27" xlink:href="#linear-gradient-6"/><linearGradient id="linear-gradient-8" x1="48.36" y1="126.98" x2="55.33" y2="100.97" xlink:href="#linear-gradient-6"/><linearGradient id="linear-gradient-9" x1="314.51" y1="387.64" x2="326.33" y2="388.67" xlink:href="#linear-gradient-6"/></defs><title>RH Small Black Logo222</title><rect class="cls-1" x="0.5" y="0.5" width="202.67" height="252.54" rx="75.27" ry="75.27"/><polygon class="cls-2" points="119.56 167.35 119.56 209.95 150.46 184.12 150.46 167.35 119.56 167.35"/><path class="cls-2" d="M319.06,420.55a15.51,15.51,0,0,0-2.57-4.28,8.82,8.82,0,0,0-2.73-2.1,15,15,0,0,0-2.87-1q-2.57-.68-4.48-1.11a15,15,0,0,0-3.12-.43v14.13l22.53,18.35-4.16-15.89A61.82,61.82,0,0,0,319.06,420.55Z" transform="translate(-245.5 -240.96)"/><path class="cls-2" d="M314.22,393.43a10.27,10.27,0,0,0,8.12-4.11q3.42-4.11,3.42-12.23a38.88,38.88,0,0,0-.82-8.81,14.5,14.5,0,0,0-2.35-5.43,7.73,7.73,0,0,0-3.64-2.74,14.09,14.09,0,0,0-4.62-.73h-4.21a10.46,10.46,0,0,0-1.48.13l-1.89.3a18,18,0,0,0-1.91.43l-1.56.43V392.4a18.2,18.2,0,0,0,5.2.94Q311.11,393.43,314.22,393.43Z" transform="translate(-245.5 -240.96)"/><path class="cls-3" d="M303.29,411.65a15,15,0,0,1,3.12.43q1.91.43,4.48,1.11a15,15,0,0,1,2.87,1,8.82,8.82,0,0,1,2.73,2.1,15.51,15.51,0,0,1,2.57,4.28,61.82,61.82,0,0,1,2.6,7.7l4.16,15.89,18.38,15a10.74,10.74,0,0,0,1.74-2.29q-.66-1.54-1.94-4.36a59.42,59.42,0,0,1-2.76-8L335.06,422a50.88,50.88,0,0,0-3.88-10.09,16.6,16.6,0,0,0-5.63-6.76,12.54,12.54,0,0,0,6.29-3.51,25.1,25.1,0,0,0,5-7.1,44.84,44.84,0,0,0,3.31-9.71,52.37,52.37,0,0,0,1.23-11.59,50,50,0,0,0-1.8-13.82,36.23,36.23,0,0,0-5.09-11,23.76,23.76,0,0,0-6-6H289.26c-.51.22-1,.43-1.34.63v70.14l15.37,12.52Zm0-51,1.56-.43a18,18,0,0,1,1.91-.43l1.89-.3a10.46,10.46,0,0,1,1.48-.13h4.21a14.09,14.09,0,0,1,4.62.73,7.73,7.73,0,0,1,3.64,2.74,14.5,14.5,0,0,1,2.35,5.43,38.88,38.88,0,0,1,.82,8.81q0,8.13-3.42,12.23a10.27,10.27,0,0,1-8.12,4.11q-3.12,0-5.74-.09a18.2,18.2,0,0,1-5.2-.94Z" transform="translate(-245.5 -240.96)"/><path class="cls-3" d="M365.06,408.31H396v16.76l15.09-12.62v-60a17.85,17.85,0,0,0-.71-5.18,13.94,13.94,0,0,0-1.89-4c-.19-.27-.38-.52-.58-.75H396v45.62H365V352.45a17.4,17.4,0,0,0-2.19-8.9,11.42,11.42,0,0,0-.7-1.05H349.8V443.73q0,7.87,2.68,12a9.77,9.77,0,0,0,3.09,3.13l9.49-7.93Z" transform="translate(-245.5 -240.96)"/><path class="cls-3" d="M306,338.07h87.4l.14-.4h-87.7Z" transform="translate(-245.5 -240.96)"/><path class="cls-3" d="M305.23,336.15h88.83l.53-1.5H304.65Z" transform="translate(-245.5 -240.96)"/><path class="cls-3" d="M305.69,337.33h87.95l.3-.85H305.36Z" transform="translate(-245.5 -240.96)"/><path class="cls-3" d="M410.15,299.47C400.91,317.65,380.57,324.16,373,323c-10-1.54-23.28-18.55-24.28-32.89,0-.32,0-.63,0-.94.34,14.31-11.4,31.4-21.17,33.95-7.39,1.93-27.15-4.68-38.21-21.8,4.24,8,8.5,16.77,12.54,26.43.93,2.22,1.8,4.4,2.65,6.57h90.19q.76-2.08,1.56-4.2A284.83,284.83,0,0,1,410.15,299.47Zm-64.5,8.8c-.57,1.22-5.44,11.4-13.56,16a14.93,14.93,0,0,1-6.43,2.11,14.21,14.21,0,0,1-4.19-.37,51.14,51.14,0,0,1-13-4.62,43.87,43.87,0,0,1-11.64-9.3,53.61,53.61,0,0,0,6.53,5.26A46.91,46.91,0,0,0,317.42,324c3.93,1.05,6.33,1.69,9.52,1.15,2.39-.41,5.57-1.55,9.63-5.36,9.41-8.84,12.12-21.24,12.09-20.93A31.48,31.48,0,0,1,345.65,308.27Zm25.49,17c-10.78-4-20.22-15.74-21.68-28a6.12,6.12,0,0,1,0-1.12c1.47,12.27,11,24,21.78,28s31.72-10.55,33.74-15.89C402.15,316,382,329.35,371.13,325.28Z" transform="translate(-245.5 -240.96)"/><path class="cls-3" d="M290.67,296.17a6.36,6.36,0,1,0-8.9,1.25A6.36,6.36,0,0,0,290.67,296.17Zm-4.86-9a5.56,5.56,0,0,0-2.26.56,5.94,5.94,0,0,0-1.09.72,8.78,8.78,0,0,0-1.35,1.33,19,19,0,0,0-1.35,2,5.34,5.34,0,0,1,1.13-2.41,6,6,0,0,1,3.36-2.29,5.81,5.81,0,0,1,3.11.22A6.26,6.26,0,0,0,285.81,287.2Z" transform="translate(-245.5 -240.96)"/><path class="cls-3" d="M344,281.46a6.36,6.36,0,1,0-1.25-8.9A6.36,6.36,0,0,0,344,281.46Zm-2-4.76a5.34,5.34,0,0,1,.92-2.5,6,6,0,0,1,3.15-2.57,5.81,5.81,0,0,1,3.12-.05,6.25,6.25,0,0,0-1.56,0,5.56,5.56,0,0,0-2.2.75,5.94,5.94,0,0,0-1,.81,8.77,8.77,0,0,0-1.23,1.44A19,19,0,0,0,342,276.71Z" transform="translate(-245.5 -240.96)"/><path class="cls-3" d="M416.71,284.35a6.36,6.36,0,1,0,1.25,8.9A6.36,6.36,0,0,0,416.71,284.35Zm-3.61.28a5.56,5.56,0,0,0-2.24.61,5.94,5.94,0,0,0-1.08.75,8.78,8.78,0,0,0-1.32,1.36,19,19,0,0,0-1.3,2,5.34,5.34,0,0,1,1.07-2.44,6,6,0,0,1,3.3-2.37,5.81,5.81,0,0,1,3.11.14A6.25,6.25,0,0,0,413.1,284.63Z" transform="translate(-245.5 -240.96)"/><path class="cls-3" d="M336.57,319.8c-4.05,3.81-7.23,5-9.63,5.36-3.19.55-5.6-.1-9.52-1.15a46.91,46.91,0,0,1-14.11-6.62,53.61,53.61,0,0,1-6.53-5.26,43.87,43.87,0,0,0,11.64,9.3,51.14,51.14,0,0,0,13,4.62,14.21,14.21,0,0,0,4.19.37,14.93,14.93,0,0,0,6.43-2.11c8.13-4.64,13-14.82,13.56-16a31.48,31.48,0,0,0,3-9.4C348.68,298.56,346,311,336.57,319.8Z" transform="translate(-245.5 -240.96)"/><path class="cls-4" d="M336.57,319.8c-4.05,3.81-7.23,5-9.63,5.36-3.19.55-5.6-.1-9.52-1.15a46.91,46.91,0,0,1-14.11-6.62,53.61,53.61,0,0,1-6.53-5.26,43.87,43.87,0,0,0,11.64,9.3,51.14,51.14,0,0,0,13,4.62,14.21,14.21,0,0,0,4.19.37,14.93,14.93,0,0,0,6.43-2.11c8.13-4.64,13-14.82,13.56-16a31.48,31.48,0,0,0,3-9.4C348.68,298.56,346,311,336.57,319.8Z" transform="translate(-245.5 -240.96)"/><path class="cls-3" d="M404.95,308.28c-2,5.34-22.86,20-33.74,15.89s-20.3-15.77-21.78-28a6.12,6.12,0,0,0,0,1.12c1.46,12.29,10.9,24,21.68,28S402.15,316,404.95,308.28Z" transform="translate(-245.5 -240.96)"/><path class="cls-5" d="M404.95,308.28c-2,5.34-22.86,20-33.74,15.89s-20.3-15.77-21.78-28a6.12,6.12,0,0,0,0,1.12c1.46,12.29,10.9,24,21.68,28S402.15,316,404.95,308.28Z" transform="translate(-245.5 -240.96)"/><path class="cls-6" d="M284.26,287.1a6,6,0,0,0-3.36,2.29,5.34,5.34,0,0,0-1.13,2.41,19,19,0,0,1,1.35-2,8.78,8.78,0,0,1,1.35-1.33,5.94,5.94,0,0,1,1.09-.72,5.56,5.56,0,0,1,2.26-.56,6.26,6.26,0,0,1,1.55.11A5.81,5.81,0,0,0,284.26,287.1Z" transform="translate(-245.5 -240.96)"/><path class="cls-7" d="M344.39,273.17a5.94,5.94,0,0,1,1-.81,5.56,5.56,0,0,1,2.2-.75,6.25,6.25,0,0,1,1.56,0,5.81,5.81,0,0,0-3.12.05,6,6,0,0,0-3.15,2.57,5.34,5.34,0,0,0-.92,2.5,19,19,0,0,1,1.17-2.09A8.77,8.77,0,0,1,344.39,273.17Z" transform="translate(-245.5 -240.96)"/><path class="cls-8" d="M411.54,284.56a6,6,0,0,0-3.3,2.37,5.34,5.34,0,0,0-1.07,2.44,19,19,0,0,1,1.3-2,8.78,8.78,0,0,1,1.32-1.36,5.94,5.94,0,0,1,1.08-.75,5.56,5.56,0,0,1,2.24-.61,6.25,6.25,0,0,1,1.56.07A5.81,5.81,0,0,0,411.54,284.56Z" transform="translate(-245.5 -240.96)"/><path class="cls-9" d="M350.83,389.52q-.27,0,0-43.69v-1.55a.15.15,0,0,1,.14-.16l1.42-.09a43.08,43.08,0,0,1,6.2,0,13.54,13.54,0,0,1,3.1.49,12.75,12.75,0,0,1-2.51.07c-3.19,0-4,0-5,.1s-2,.1-2.49.17C351.19,374.59,351,389.52,350.83,389.52Z" transform="translate(-245.5 -240.96)"/><path class="cls-10" d="M397,389.52q-.27,0,0-43.69v-1.55a.15.15,0,0,1,.14-.16l1.42-.09a43.08,43.08,0,0,1,6.2,0,13.54,13.54,0,0,1,3.1.49,12.75,12.75,0,0,1-2.51.07c-3.19,0-4,0-5,.1s-2.06.1-2.54.17C397.27,374.58,397.13,389.52,397,389.52Z" transform="translate(-245.5 -240.96)"/><polygon class="cls-11" points="43.84 125.77 43.84 103.67 65.38 103.67 44.69 104.54 43.84 125.77"/><path class="cls-12" d="M313.88,394.88a17.11,17.11,0,0,0,5.38-1.5,13.38,13.38,0,0,0,4.75-4.12c2.65-3.76,2.49-7.91,2.75-7.87s.2,2.06-.33,4.13a13,13,0,0,1-2.29,4.71,12.58,12.58,0,0,1-5.12,3.92A9.84,9.84,0,0,1,313.88,394.88Z" transform="translate(-245.5 -240.96)"/></svg>