<?xml version="1.0"?>
<svg xmlns="http://www.w3.org/2000/svg" viewBox="0 0 512 512" width="512" height="512"><g id="outline"><path d="M455,248H437.607a116.854,116.854,0,0,0-92.834,45.4A118.178,118.178,0,0,0,320,365.607V368H296a8,8,0,0,0-8,8v7.419A56.078,56.078,0,0,1,240,328v-8a56.27,56.27,0,0,1,22.4-44.8l33.171-24.879A101.548,101.548,0,0,0,336,169.465,105.584,105.584,0,0,0,230.536,64H224V42a26.029,26.029,0,0,0-26-26H138a26.029,26.029,0,0,0-26,26V65.5A34.059,34.059,0,0,0,88,98V440H56a8,8,0,0,0-5.657,2.343l-16,16A8,8,0,0,0,32,464v24a8,8,0,0,0,8,8H184a8,8,0,0,0,8-8V464a8,8,0,0,0-2.343-5.657l-16-16A8,8,0,0,0,168,440H136V160a8,8,0,0,0,8-8V112h88a56,56,0,0,1,33.6,100.8L240,232a120.574,120.574,0,0,0-48,96,104.139,104.139,0,0,0,96,103.7V440a8,8,0,0,0,8,8h24v8a8,8,0,0,0,8,8h29.414a55.981,55.981,0,0,0,101.25-.172A41.05,41.05,0,0,0,496,423V289A41.047,41.047,0,0,0,455,248Zm-97.6,55.226A100.952,100.952,0,0,1,437.607,264H455a25.028,25.028,0,0,1,25,25v63H336.943A102.156,102.156,0,0,1,357.4,303.226ZM128,42a10.011,10.011,0,0,1,10-10h60a10.011,10.011,0,0,1,10,10V64H192V48a8,8,0,0,0-8-8H152a8,8,0,0,0-8,8V64H128Zm32,22V56h16v8Zm16,403.313V480H48V467.313L59.313,456H164.687ZM104,440V408h16v32Zm16-48H104V160h16ZM136,96a8,8,0,0,0-8,8v40H104V98a18.021,18.021,0,0,1,18-18h86V96Zm72,232a104.493,104.493,0,0,1,41.6-83.2l25.6-19.2A72,72,0,0,0,232,96h-8V80h6.536A89.566,89.566,0,0,1,320,169.465a85.476,85.476,0,0,1-34.028,68.056L252.8,262.4A72.349,72.349,0,0,0,224,320v8a72.108,72.108,0,0,0,64,71.559V415.64A88.119,88.119,0,0,1,208,328Zm96,104V384h16v48Zm104,48a40,40,0,1,1,40-40A40.045,40.045,0,0,1,408,480Zm55.615-33.53A56,56,0,1,0,352.581,448H336V368H480v55A25.043,25.043,0,0,1,463.615,446.47Z"/><path d="M408,416a24,24,0,1,0,24,24A24.027,24.027,0,0,0,408,416Zm0,32a8,8,0,1,1,8-8A8.009,8.009,0,0,1,408,448Z"/><path d="M392,336a8,8,0,0,0,8-8V312a8,8,0,0,0-16,0v16A8,8,0,0,0,392,336Z"/><path d="M424,336a8,8,0,0,0,8-8V312a8,8,0,0,0-16,0v16A8,8,0,0,0,424,336Z"/><path d="M456,336a8,8,0,0,0,8-8V312a8,8,0,0,0-16,0v16A8,8,0,0,0,456,336Z"/></g></svg>
